<svg width="1080" height="760" viewBox="0 0 1080 760" fill="none" xmlns="http://www.w3.org/2000/svg">
  <defs>
    <linearGradient id="bg2" x1="90" y1="60" x2="980" y2="706" gradientUnits="userSpaceOnUse">
      <stop stop-color="#123B63"/>
      <stop offset="1" stop-color="#14908C"/>
    </linearGradient>
    <radialGradient id="glow2" cx="0" cy="0" r="1" gradientUnits="userSpaceOnUse" gradientTransform="translate(244 632) rotate(90) scale(190 220)">
      <stop stop-color="#94B7FF" stop-opacity="0.5"/>
      <stop offset="1" stop-color="#94B7FF" stop-opacity="0"/>
    </radialGradient>
  </defs>

  <rect x="36" y="30" width="1008" height="700" rx="40" fill="url(#bg2)"/>
  <rect x="36" y="30" width="1008" height="700" rx="40" stroke="rgba(255,255,255,0.24)"/>
  <circle cx="244" cy="632" r="188" fill="url(#glow2)"/>

  <rect x="94" y="82" width="892" height="44" rx="22" fill="rgba(255,255,255,0.2)"/>
  <circle cx="126" cy="104" r="7" fill="rgba(255,255,255,0.78)"/>
  <circle cx="150" cy="104" r="7" fill="rgba(255,255,255,0.52)"/>
  <circle cx="174" cy="104" r="7" fill="rgba(255,255,255,0.34)"/>

  <rect x="94" y="146" width="892" height="526" rx="30" fill="rgba(255,255,255,0.08)" stroke="rgba(255,255,255,0.2)"/>

  <rect x="142" y="194" width="398" height="210" rx="24" fill="rgba(255,255,255,0.9)"/>
  <rect x="176" y="236" width="190" height="15" rx="7.5" fill="#12427B" fill-opacity="0.9"/>
  <rect x="176" y="265" width="124" height="10" rx="5" fill="#12427B" fill-opacity="0.5"/>
  <rect x="176" y="308" width="334" height="22" rx="11" fill="#10A0A1"/>
  <rect x="176" y="342" width="250" height="14" rx="7" fill="#12427B" fill-opacity="0.35"/>

  <rect x="558" y="194" width="380" height="430" rx="24" fill="rgba(9,48,86,0.58)" stroke="rgba(255,255,255,0.24)"/>
  <path d="M592 548C646 502 684 514 740 470C788 433 820 439 862 394C886 369 908 352 918 336" stroke="#A8FFF4" stroke-width="8" stroke-linecap="round"/>
  <circle cx="592" cy="548" r="12" fill="#A8FFF4"/>
  <circle cx="688" cy="500" r="12" fill="#A8FFF4"/>
  <circle cx="784" cy="446" r="12" fill="#A8FFF4"/>
  <circle cx="862" cy="394" r="12" fill="#A8FFF4"/>

  <rect x="604" y="236" width="290" height="94" rx="18" fill="rgba(255,255,255,0.14)"/>
  <rect x="628" y="266" width="144" height="12" rx="6" fill="rgba(255,255,255,0.88)"/>
  <rect x="628" y="289" width="196" height="10" rx="5" fill="rgba(255,255,255,0.52)"/>

  <rect x="142" y="430" width="398" height="194" rx="24" fill="rgba(255,255,255,0.14)" stroke="rgba(255,255,255,0.28)"/>
  <rect x="176" y="468" width="318" height="14" rx="7" fill="rgba(255,255,255,0.86)"/>
  <rect x="176" y="495" width="188" height="10" rx="5" fill="rgba(255,255,255,0.54)"/>
  <rect x="176" y="536" width="232" height="54" rx="14" fill="rgba(255,255,255,0.2)"/>
</svg>
