<svg width="640" height="420" viewBox="0 0 640 420" fill="none" xmlns="http://www.w3.org/2000/svg">
  <rect width="640" height="420" fill="#f3f0ff"/>
  <rect x="214" y="44" width="212" height="332" rx="36" fill="#111827"/>
  <rect x="232" y="76" width="176" height="268" rx="24" fill="#ffffff"/>
  <rect x="280" y="60" width="80" height="10" rx="5" fill="#374151"/>
  <circle cx="320" cy="358" r="8" fill="#374151"/>
  <rect x="256" y="108" width="128" height="66" rx="18" fill="#6f48d7"/>
  <rect x="256" y="196" width="58" height="58" rx="16" fill="#ede9fe"/>
  <rect x="326" y="196" width="58" height="58" rx="16" fill="#ede9fe"/>
  <rect x="256" y="272" width="128" height="22" rx="11" fill="#ff6b35"/>
  <circle cx="144" cy="140" r="36" fill="#ffffff" stroke="#d8ccff" stroke-width="2"/>
  <circle cx="496" cy="260" r="44" fill="#ffffff" stroke="#d8ccff" stroke-width="2"/>
  <path d="M136 140H152M144 132V148" stroke="#6f48d7" stroke-width="8" stroke-linecap="round"/>
  <path d="M480 260H512" stroke="#6f48d7" stroke-width="8" stroke-linecap="round"/>
  <path d="M496 244V276" stroke="#ff6b35" stroke-width="8" stroke-linecap="round"/>
</svg>
